<svg width="512" height="512" viewBox="0 0 512 512" xmlns="http://www.w3.org/2000/svg" xmlns:xlink="http://www.w3.org/1999/xlink"><title>chrome_devtools</title><defs><path id="a" d="M373.333 405.333H32c-17.6 0-32-14.4-32-32V32C0 14.4 14.4 0 32 0h341.333c17.6 0 32 14.4 32 32v341.333c0 17.6-14.4 32-32 32z"/><linearGradient x1="32.638%" y1="-4.629%" x2="42.953%" y2="27.821%" id="c"><stop stop-color="#D7D7D7" offset="0%"/><stop stop-color="#F9F9F9" offset="100%"/></linearGradient><radialGradient cx="41.34%" cy="0%" fx="41.34%" fy="0%" r="56.544%" id="d"><stop stop-color="#1A237E" stop-opacity=".15" offset="0%"/><stop stop-color="#1A237E" stop-opacity="0" offset="100%"/></radialGradient><radialGradient cx="-.167%" cy=".103%" fx="-.167%" fy=".103%" r="136.321%" id="e"><stop stop-color="#1A237E" stop-opacity=".2" offset="0%"/><stop stop-color="#1A237E" stop-opacity="0" offset="100%"/></radialGradient><radialGradient cx="85.084%" cy="13.4%" fx="85.084%" fy="13.4%" r="153.655%" id="f"><stop stop-color="#1A237E" stop-opacity=".12" offset="0%"/><stop stop-color="#1A237E" stop-opacity="0" offset="100%"/></radialGradient><radialGradient cx="14.935%" cy="13.644%" fx="14.935%" fy="13.644%" r="100.424%" id="g"><stop stop-color="#FFF" stop-opacity=".1" offset="0%"/><stop stop-color="#FFF" stop-opacity="0" offset="100%"/></radialGradient><radialGradient cx="2.81%" cy="2.846%" fx="2.81%" fy="2.846%" r="134.115%" id="h"><stop stop-color="#FFF" stop-opacity=".1" offset="0%"/><stop stop-color="#FFF" stop-opacity="0" offset="100%"/></radialGradient></defs><g fill="none" fill-rule="evenodd"><g><g><path d="M0 0H512V512H0z"/><g transform="translate(53.333 53.333)"><mask id="b" fill="#fff"><use xlink:href="#a"/></mask><use fill="#2879FF" xlink:href="#a"/><path d="M373.333 402.667H32c-17.6 0-32-14.4-32-32v2.666c0 17.6 14.4 32 32 32h341.333c17.6 0 32-14.4 32-32v-2.666c0 17.6-14.4 32-32 32z" opacity=".2" fill="#0D254C" mask="url(#b)"/><path d="M373.333 0H32C14.4 0 0 14.4 0 32v2.667c0-17.6 14.4-32 32-32h341.333c17.6 0 32 14.4 32 32V32c0-17.6-14.4-32-32-32z" fill="#5496FF" mask="url(#b)"/><circle stroke="#47A4FB" stroke-width="1.333" mask="url(#b)" cx="202.667" cy="202.667" r="106.667"/><path d="M-53.333-53.333l512 512m0-512l-512 512m330.666-512v512M128-53.333v512m330.667-181.334h-512m512-149.333h-512m0 74.667h512m-256-256v512" stroke="#47A4FB" stroke-width="1.333" mask="url(#b)"/></g><g transform="translate(96 96)"><path d="M223.202 196.496h.027L152.28 320.58S48 317.333 13.333 229.333C-21.333 141.333 24 74.667 24 74.667l72.407 121.188c12.528 22.16 36.307 37.12 63.58 37.12 27.01 0 50.593-14.671 63.215-36.48z" opacity=".32" fill="#458BFF"/><path d="M152.383 320.404l70.846-123.908-.014-.024c6.207-10.733 9.76-23.194 9.76-36.485 0-39.936-32.076-72.381-71.87-72.978h141.967c11.195 21.899 17.51 46.708 17.51 72.991 0 88.687-71.895 160.581-160.582 160.581-2.553 0-5.093-.06-7.617-.177z" opacity=".05" fill="url(#c)"/><path d="M213.935 110.825l89.128-23.816H161.105a74.463 74.463 0 0 0-1.117-.009C119.678 87 87 119.678 87 159.987c0 40.31 32.678 72.988 72.988 72.988s72.987-32.678 72.987-72.988c0-18.937-7.213-36.19-19.04-49.162z" fill="url(#d)"/><path d="M90.209 138.518L24.911 73.231 96.173 195.44C90.33 184.942 87 172.854 87 159.987a72.974 72.974 0 0 1 3.209-21.469z" fill="url(#e)"/><path d="M176.309 231.143l-23.918 89.237 70.838-123.884-.02-.012c-10 17.284-26.882 30.086-46.9 34.659z" fill="url(#f)"/><path d="M96.533 197.13l-2.154 1.27L24 75.936l2.155-1.27 70.378 122.465zm56.134 122.244l72-124.707 2.31 1.333-72 124.708-2.31-1.334zM160 84h141.333v2.667H160V84z" fill="#FFF"/><circle stroke="#FFF" stroke-width="2.667" cx="160" cy="160" r="58.667"/><circle stroke="#FFF" stroke-width="2.667" cx="160" cy="160" r="74.667"/><circle stroke="#FFF" stroke-width="5.333" cx="160" cy="160" r="160"/><circle fill="url(#g)" cx="160" cy="160" r="160"/></g><path d="M85.333 458.667c-17.6 0-32-14.4-32-32V85.333c0-17.6 14.4-32 32-32h341.334c17.6 0 32 14.4 32 32v341.334c0 17.6-14.4 32-32 32H85.333z" fill="url(#h)"/></g></g></g></svg>