<svg xmlns="http://www.w3.org/2000/svg" xmlns:xlink="http://www.w3.org/1999/xlink" width="961" height="429" viewBox="0 0 961 429"><defs><linearGradient x1="464.315" y1="532.267" x2="464.315" y2="108.459" id="a" gradientUnits="userSpaceOnUse" gradientTransform="matrix(1 0 0 -1 .14 777.638)"><stop offset=".15" stop-color="#2a4f84"/><stop offset=".388" stop-color="#294e82"/><stop offset="1" stop-color="#172e4e"/></linearGradient><linearGradient x1="464.315" y1="532.267" x2="464.315" y2="108.459" id="b" xlink:href="#a" gradientUnits="userSpaceOnUse" gradientTransform="matrix(1 0 0 -1 -110.82 852.735)"/></defs><g transform="translate(130.531 -317.844)"><path d="M778.763 662.534c0 44.958-36.784 81.742-81.742 81.742H9.97c-44.959 0-81.743-36.784-81.743-81.742V402.21c0-44.958 36.785-81.742 81.743-81.742h687.05c44.958 0 81.742 36.784 81.742 81.742v260.324z" fill="url(#b)"/><path d="M635.038 526.81c35.91 12.564 53.856 34.089 53.856 64.544 0 20.046-7.443 35.957-22.296 47.725-14.838 11.776-36.005 19.084-63.557 19.084s-53.037-7.983-76.51-21.088c.254-6.95 2.091-14.575 5.463-22.852 3.372-8.277 7.363-14.853 11.936-19.656 21.573 11.21 40.346 16.826 56.281 16.826 7.531 0 13.358-1.264 17.414-3.81 4.063-2.535 6.083-5.94 6.083-10.216 0-8.04-6.226-14.051-18.638-18.058l-22.296-8.421c-33.73-12.293-50.596-32.323-50.596-60.146 0-20.316 7.085-36.418 21.255-48.33 14.17-11.895 33.27-22.137 57.283-22.137 11.88 0 24.96 1.67 39.272 5.01 14.297 3.348 26.042 11.594 35.218 16.125.541 7.49-.962 15.712-4.452 24.665-3.515 8.96-7.824 15.306-12.969 19.052-22.685-10.162-41.562-15.243-56.686-15.243-5.415 0-9.494 1.2-12.357 3.618-2.83 2.41-4.223 5.478-4.223 9.224 0 6.417 5.121 11.49 15.386 15.235l25.133 8.85zm-179.355 0c35.91 12.564 53.848 34.089 53.848 64.544 0 20.046-7.443 35.957-22.272 47.725-14.853 11.776-36.028 19.084-63.572 19.084-27.528 0-53.045-7.983-76.51-21.088.254-6.95 2.091-14.575 5.47-22.852 3.373-8.277 7.348-14.853 11.937-19.656 21.597 11.21 40.362 16.826 56.289 16.826 7.538 0 13.366-1.264 17.406-3.81 4.048-2.535 6.083-5.94 6.083-10.216 0-8.04-6.226-14.051-18.638-18.058l-22.281-8.421c-33.738-12.293-50.611-32.323-50.611-60.146 0-20.316 7.085-36.418 21.27-48.33 14.162-11.895 33.253-22.137 57.267-22.137 11.872 0 24.984 1.67 39.265 5.01 14.313 3.348 26.042 11.594 35.225 16.125.54 7.49-.962 15.712-4.452 24.665-3.507 8.96-7.824 15.306-12.961 19.052-22.694-10.162-41.571-15.243-56.702-15.243-5.407 0-9.502 1.2-12.35 3.618-2.822 2.41-4.23 5.478-4.23 9.224 0 6.417 5.129 11.49 15.395 15.235l25.125 8.85zm-130.794 2.83c0-12.292-1.956-23.655-5.868-34.088-3.904-10.432-9.51-19.378-16.794-26.868-7.292-7.49-16.126-13.367-26.511-17.645-10.401-4.27-22.074-10.711-35.027-10.711-15.387 0-28.816 6.966-40.282 12.317-11.466 5.344-20.913 12.69-28.332 22.05-7.435 9.366-12.97 20.388-16.611 33.086C151.822 520.48 150 534.315 150 549.28c0 15.49 1.479 29.818 4.453 42.914 2.966 13.08 8.03 24.435 15.18 34.073 7.156 9.62 16.467 17.104 27.94 22.439 11.475 5.344 25.716 9.447 42.717 9.447 31.305 0 57.752-9.065 79.348-24.292-2.14-15.49-7.657-27.807-16.523-36.896-11.03 4.142-20.786 7.108-29.246 8.93-8.468 1.798-15.935 2.704-22.383 2.704-12.906 0-22.193-3.284-27.83-9.915-5.631-6.608-8.72-14.424-9.267-26.296h105.265c3.477-11.243 5.234-26.438 5.234-42.747zm-110.9 2.777c.802-13.645 3.292-28.244 7.435-34.255 4.15-6.02 10.504-9.025 19.083-9.025 8.835 0 15.466 3.197 19.879 9.614 4.422 6.417 6.63 19.346 6.63 29.237l.009 4.429h-53.036z" fill="#f6f6f6"/><path d="M799.955 559.094c-11.442 9.995-18.082 24.379-18.082 43.185v70.037c0 23.282-7.157 40.99-23.322 53.164-16.15 12.158-34.98 18.177-56.472 18.757l-12.738-.096v-34.9c11.228-3.275 15.839-7.083 20.308-11.41 8.095-7.314 14.297-19.218 14.297-35.75V605.54c.302-19.22 1.78-34.28 8.778-45.157 7.022-10.878 20.69-20.388 41.006-28.602-22.44-10.273-37.508-23.688-45.19-40.235-4.515-9.828-4.603-23.091-4.603-39.774v-51.852c0-17.128-5.606-29.126-12.5-35.973-4.484-4.47-9.701-8.04-22.113-10.734V320.45c15.18.159 22.845-.015 31.687 0 13.613-.111 25.016 7.332 34.939 15.084 10.806 8.5 18.486 19.99 22.987 34.454 2.56 8.357 2.926 16.34 2.926 23.942v59.97c0 21.183 6.258 36.928 16.953 47.209 6.028 5.964 14.536 11.418 29.143 16.34v27.092c-12.943 3.579-21.07 8.429-28.004 14.552zm-805.2-238.625v.047c-4.349-.024-8.286-.04-11.434-.032-13.62-.12-25.023 7.324-34.938 15.084-10.822 8.5-20.085 19.593-22.987 34.454-1.654 8.715-1.304 16.332-1.304 23.942v59.97c0 21.176-7.88 36.912-18.567 47.21-6.02 5.963-18.87 11.409-33.485 16.33v27.09c12.953 3.572 25.422 8.406 32.34 14.545 11.45 10.003 19.702 24.396 19.702 43.2v70.037c0 23.267 5.552 40.99 21.7 53.148 16.15 12.15 34.971 18.193 56.465 18.78l14.383-.095v-34.923c-11.22-3.284-17.452-7.093-21.946-11.403-8.087-7.324-12.667-19.22-12.667-35.742V605.56c-.31-19.234-3.41-34.28-10.416-45.165-7.005-10.862-20.674-20.388-41.014-28.594 22.448-10.281 37.508-23.688 45.19-40.227 4.524-9.836 6.241-23.1 6.241-39.781V399.94c0-17.128 3.975-29.126 10.862-35.98 3.737-3.721 10.385-6.783 19.617-9.263l14.6.102v-34.334h-32.34v.003h-.002z" fill="#f6f6f6" stroke="#404040" stroke-width="5.15089989" stroke-miterlimit="10"/><path d="M129.352 604.608H118.42c-11.886 0-16.363-6.25-16.363-18.805V355.058c0-13.875-4.008-23.616-9.138-29.23-5.129-5.597-14.034-5.541-26.717-5.541h-24.69l-2.91-.056v.238l-.023 34.343v242.156c0 19.258 4.325 33.349 12.021 42.318 7.706 8.953 20.723 13.422 39.075 13.422 12.69 0 27.13-1.336 43.32-4.016.81-2.704 1.216-8.492 1.216-17.374 0-8.906-1.62-17.788-4.858-26.71z" fill="#f6f6f6"/></g></svg>