<svg width="2162" height="2500" viewBox="0 0 256 296" xmlns="http://www.w3.org/2000/svg" preserveAspectRatio="xMidYMid"><path d="M0 73.956L128 0l128 73.956v147.91l-128 73.482L0 221.867V73.956z" fill="#FFF"/><path d="M204.8 201.956H82.963V94.34H58.785v132.266H128v20.386l76.8-45.037z" fill="#07582A"/><path d="M180.622 135.585c5.215-7.585 8.06-16.592 8.06-26.074 0-26.074-21.334-47.407-47.408-47.407H128V45.985L59.26 86.281h81.54c12.8 0 22.756 10.43 22.756 22.756s-10.43 22.756-22.756 22.756H90.548v24.651h72.059c12.326 0 22.756 10.43 22.756 22.756 0 5.689-1.896 10.904-5.689 14.696h27.496c1.423-4.74 2.37-9.481 2.37-14.696.475-19.911-11.851-36.978-28.918-43.615z" fill="#6CB433"/></svg>