<svg xmlns="http://www.w3.org/2000/svg" id="Layer_1" viewBox="0 0 499.99999 200.00001" width="500" height="200"><style id="style3366">.st0{fill:#fff}</style><g id="g3402" fill="#fff"><path d="M43.504 132.54V33.21h28.418c10.358 0 19.388 5.31 22.575 14.607l32.136 84.723h37.183l-37.183-97.472C125.04 27.632 113.353.276 80.953.276H10.304V132.54h33.2z" class="st0" id="XMLID_28_"/><path d="M456.496.276v99.33h-28.418c-10.89 0-19.122-6.64-22.575-14.607L373.367.275h-37.183l37.183 97.472c3.984 13.014 15.935 34.792 45.68 34.792h70.648V.276h-33.2z" class="st0" id="XMLID_27_"/><path class="st0" id="XMLID_26_" d="M232.073 132.54h-34.527l-12.483-33.2h34.26z"/><path d="M317.327 104.122S282.8 12.76 282.27 11.697C277.753 4.527 270.85-.255 261.287.01h-28.95s11.42 8.234 18.592 28.42c0 0 32.933 87.112 33.73 88.97 3.452 9.297 11.686 15.406 19.388 15.406h32.136c-.266-.266-11.686-8.765-18.857-28.684" class="st0" id="XMLID_25_"/><path id="path3372" d="M91.84 180.612c0 2.125-.265 3.718-.796 5.312-.53 1.593-1.062 2.92-2.124 3.984-.797 1.062-1.86 1.86-3.188 2.39s-2.655.797-4.25.797c-1.327 0-2.39 0-3.452-.266a33.772 33.772 0 0 1-2.656-.798v-22.31c.797-.265 1.594-.796 2.656-.796 1.063-.266 2.125-.266 3.453-.266 1.594 0 2.92.266 4.25.797 1.327.53 2.39 1.328 3.187 2.39.796 1.063 1.593 2.39 2.124 3.984.53.798.797 2.657.797 4.782m-3.717 0c0-1.594-.266-2.922-.53-4.25-.267-1.062-.798-2.124-1.33-2.92-.53-.798-1.327-1.33-1.86-1.595-.795-.265-1.592-.53-2.39-.53h-1.592c-.53 0-.796.265-1.327.265v17.53c.265.264.53.264 1.062.264h1.594c.795 0 1.592-.265 2.39-.53.796-.266 1.327-.798 1.858-1.594.53-.797 1.062-1.594 1.328-2.922.797-.797.797-2.125.797-3.718" class="st0"/><path id="path3374" d="M107.776 169.457c0 .53-.265 1.062-.53 1.594-.532.266-.798.532-1.33.532-.53 0-1.06-.266-1.327-.53-.532-.267-.532-.798-.532-1.595 0-.53.266-1.062.53-1.328.533-.532.798-.532 1.33-.532.53 0 1.062.266 1.327.53.266.267.53.798.53 1.33m-3.717 5.31h3.453v17.795h-3.452V174.77z" class="st0"/><path id="path3376" d="M134.867 192.563c0 2.39-.532 4.25-1.86 5.578-1.327 1.33-3.187 1.86-5.31 1.86-1.33 0-2.392 0-3.454-.266-1.062-.265-1.86-.53-2.656-1.062l1.062-2.92c.53.264 1.327.53 2.124.795.797.266 1.86.266 2.656.266 1.328 0 2.39-.266 3.187-1.062.797-.796 1.063-1.86 1.063-3.187v-1.327c-.532.265-1.063.265-1.594.53-.53.266-1.328.266-1.86.266-1.06 0-2.124-.265-2.92-.53-.797-.266-1.594-1.063-2.39-1.594-.532-.797-1.063-1.594-1.594-2.656-.266-1.063-.532-2.39-.532-3.72 0-1.592.266-2.92.532-3.982.53-1.063 1.062-2.125 1.86-2.922.795-.797 1.592-1.328 2.655-1.593 1.062-.266 2.124-.532 3.452-.532 1.062 0 2.124 0 3.186.266 1.063.265 1.86.53 2.656.796v16.997zm-3.453-14.873c-.266 0-.53-.265-1.062-.265s-1.063-.266-1.328-.266c-.797 0-1.328 0-1.86.265-.53.265-1.062.53-1.593 1.062-.53.53-.796 1.063-1.06 1.86-.267.796-.267 1.593-.267 2.655 0 1.86.53 3.453 1.328 4.515.798 1.063 1.86 1.328 3.188 1.328.53 0 1.062 0 1.594-.265.53 0 1.062-.266 1.328-.532V177.69z" class="st0"/><path id="path3378" d="M152.13 169.457c0 .53-.266 1.062-.53 1.594-.267.266-.798.532-1.33.532-.53 0-1.062-.266-1.327-.53-.266-.267-.53-.798-.53-1.595 0-.53.264-1.062.53-1.328.53-.532.797-.532 1.328-.532.532 0 1.063.266 1.33.53.53.267.53.798.53 1.33m-3.718 5.31h3.452v17.795h-3.452V174.77z" class="st0"/><path d="M172.846 192.83h-1.328c-1.593 0-2.656-.532-3.453-1.33-.796-.796-1.328-2.124-1.328-3.983v-10.092h-2.39v-2.656h2.39v-4.25l3.453-1.063v5.312h3.453v2.655h-3.453v9.827c0 .796.266 1.328.797 1.86.53.264 1.062.53 1.593.53h.532c.265 0 .265 0 .53-.266v2.922c-.265.265-.53.265-.796.53" class="st0" id="XMLID_16_"/><path id="path3381" d="M198.874 191.767c-.53.265-1.594.53-2.656.796s-2.39.266-3.453.266c-2.39 0-4.25-.532-5.577-1.594-1.328-1.063-1.86-2.39-1.86-4.25 0-1.328.266-2.125.798-2.92.53-.798 1.327-1.33 2.39-1.86 1.062-.532 2.125-.797 3.187-1.063 1.328-.265 2.39-.265 3.718-.265v-1.063c0-1.062-.264-1.86-1.06-2.39-.532-.53-1.595-.797-2.657-.797-.797 0-1.594 0-2.656.266-.797.265-1.594.53-2.125.796l-.796-2.39c.796-.265 1.593-.53 2.655-.797 1.064-.265 2.126-.265 3.454-.265 1.062 0 1.86 0 2.656.265.797.266 1.594.532 2.125 1.063.53.53 1.062 1.062 1.328 1.86.265.796.53 1.592.53 2.92v11.42zm-3.187-8.234c-.797 0-1.594 0-2.656.266-.796 0-1.593.265-2.39.53-.53.266-1.062.53-1.593 1.063-.266.53-.53 1.062-.53 1.86 0 1.06.264 1.592 1.06 2.123.798.532 1.595.797 2.923.797.53 0 1.062 0 1.593-.265.53 0 1.063-.266 1.328-.266v-6.11z" class="st0"/><path class="st0" id="XMLID_13_" d="M212.685 166.536h3.452v26.027h-3.452z"/><path d="M257.038 192.563c-.797.266-1.86.266-2.92.266-1.33 0-2.392-.267-3.454-.798-1.062-.53-2.125-1.328-2.922-2.39-.796-1.062-1.593-2.39-1.86-3.984-.53-1.593-.795-3.453-.795-5.577s.265-3.983.796-5.577c.532-1.593 1.063-2.92 1.86-3.984.796-1.063 1.86-1.86 2.92-2.39 1.063-.532 2.39-.798 3.454-.798 1.062 0 1.86 0 2.92.266.798.266 1.595.53 2.126.797l-1.062 2.92c-.265-.264-.796-.53-1.327-.796-.532-.266-1.328-.266-1.86-.266-.796 0-1.593.265-2.39.53-.797.267-1.328 1.063-1.86 1.595-.53.795-.796 1.592-1.327 2.92-.266 1.062-.53 2.39-.53 3.984 0 1.594.264 2.92.53 3.984.266 1.062.797 2.125 1.328 2.92.53.798 1.062 1.33 1.86 1.595.796.265 1.327.53 2.39.53.796 0 1.327 0 1.86-.265.53-.265 1.06-.53 1.327-.796l1.063 3.187c-.797 1.592-1.328 1.858-2.125 2.123" class="st0" id="XMLID_12_"/><path d="M279.613 177.425c-.53 0-1.062-.266-1.593-.266h-1.594c-.53 0-.797.265-1.328.265v14.873h-3.452V175.3c.796-.265 1.86-.797 2.92-.797 1.063-.265 2.39-.265 3.72-.265h1.858l-.53 3.187z" class="st0" id="XMLID_11_"/><path id="path3386" d="M306.704 183.533l-11.42 1.594c.265 1.594.796 2.92 1.593 3.718.796.797 2.124 1.328 3.718 1.328.797 0 1.593 0 2.656-.265.798-.266 1.594-.532 2.126-.797l1.062 2.657c-.797.265-1.594.796-2.656.796-1.062.266-2.125.266-3.453.266-1.33 0-2.657-.267-3.72-.532-1.06-.53-1.858-1.062-2.655-1.86-.797-.796-1.328-1.858-1.593-2.92-.266-1.063-.532-2.39-.532-3.985 0-1.328.266-2.655.532-3.718.265-1.062.796-2.125 1.593-2.92.53-.798 1.594-1.33 2.39-1.86 1.063-.532 2.125-.797 3.188-.797 2.124 0 3.983.797 5.31 2.124 1.33 1.328 1.86 3.453 1.86 5.843v1.328zm-3.453-1.86c0-1.592-.265-2.655-1.062-3.45-.796-.798-1.593-1.064-2.92-1.064-1.33 0-2.39.53-3.188 1.593-.797 1.062-1.328 2.39-1.328 4.25l8.5-1.33z" class="st0"/><path id="path3388" d="M332.2 191.767c-.53.265-1.593.53-2.656.796-1.062.266-2.39.266-3.452.266-2.39 0-4.25-.532-5.578-1.594-1.328-1.063-1.86-2.39-1.86-4.25 0-1.328.267-2.125.798-2.92.53-.798 1.328-1.33 2.39-1.86 1.063-.532 2.125-.797 3.187-1.063 1.327-.265 2.39-.265 3.718-.265v-1.063c0-1.062-.266-1.86-1.063-2.39-.53-.53-1.593-.797-2.656-.797-.798 0-1.594 0-2.657.266-.796.265-1.593.53-2.124.796l-.798-2.39c.797-.265 1.593-.53 2.656-.797 1.062-.265 2.124-.265 3.452-.265 1.063 0 1.86 0 2.656.265.797.266 1.594.532 2.125 1.063.532.53 1.063 1.062 1.33 1.86.265.796.53 1.592.53 2.92v11.42zm-3.187-8.234c-.797 0-1.593 0-2.656.266-.797 0-1.593.265-2.39.53-.53.266-1.062.53-1.594 1.063-.265.53-.53 1.062-.53 1.86 0 1.06.265 1.592 1.062 2.123.796.532 1.593.797 2.92.797.532 0 1.063 0 1.595-.265.53 0 1.062-.266 1.328-.266v-6.11z" class="st0"/><path d="M352.916 192.83h-1.328c-1.593 0-2.656-.532-3.452-1.33-.797-.796-1.328-2.124-1.328-3.983v-10.092h-2.39v-2.656h2.39v-4.25l3.452-1.063v5.312h3.453v2.655h-3.453v9.827c0 .796.266 1.328.797 1.86.53.264 1.062.53 1.594.53h.532c.265 0 .265 0 .53-.266v2.922c0 .265-.265.265-.796.53" class="st0" id="XMLID_6_"/><path id="path3391" d="M370.445 169.457c0 .53-.265 1.062-.53 1.594-.532.266-.798.532-1.33.532-.53 0-1.06-.266-1.327-.53-.53-.267-.53-.798-.53-1.595 0-.53.265-1.062.53-1.328.266-.532.797-.532 1.328-.532.53 0 1.062.266 1.328.53.266.267.53.798.53 1.33m-3.717 5.31h3.453v17.795h-3.453V174.77z" class="st0"/><path d="M392.755 192.563h-3.984l-6.108-17.794h3.984l3.718 11.95c0 .266.266.797.266 1.063 0 .265.266.53.266.797 0 .265.265.53.265.796 0-.265 0-.53.267-.796 0-.266 0-.532.265-.797 0-.266.266-.797.266-1.062l3.718-11.95h3.984l-6.905 17.793z" class="st0" id="XMLID_3_"/><path id="path3394" d="M424.36 183.533l-11.42 1.594c.265 1.594.796 2.92 1.593 3.718.797.797 2.125 1.328 3.718 1.328.798 0 1.595 0 2.657-.265.797-.266 1.594-.532 2.125-.797l1.062 2.657c-.796.265-1.593.796-2.655.796-1.064.266-2.126.266-3.454.266-1.328 0-2.656-.267-3.718-.532-1.063-.53-1.86-1.062-2.656-1.86-.797-.796-1.328-1.858-1.594-2.92-.265-1.063-.53-2.39-.53-3.985 0-1.328.265-2.655.53-3.718.266-1.062.797-2.125 1.594-2.92.53-.798 1.593-1.33 2.39-1.86 1.062-.532 2.125-.797 3.187-.797 2.124 0 3.983.797 5.31 2.124 1.33 1.328 1.86 3.453 1.86 5.843v1.328zm-3.187-1.86c0-1.592-.266-2.655-1.062-3.45-.796-.798-1.593-1.064-2.92-1.064-1.33 0-2.39.53-3.188 1.593-.797 1.062-1.328 2.39-1.328 4.25l8.5-1.33z" class="st0"/></g></svg>