<svg style="position:relative;left:-.5px" height="100" width="100" xmlns="http://www.w3.org/2000/svg" overflow="hidden"><path style="-webkit-tap-highlight-color:rgba(0,0,0,0)" fill="#f89938" d="M49.973 94.128a19.38 19.38 0 0 1-13.799-5.717l-24.75-24.75a19.378 19.378 0 0 1-5.723-13.802 19.386 19.386 0 0 1 5.724-13.806l24.75-24.749a19.379 19.379 0 0 1 13.798-5.715 19.39 19.39 0 0 1 13.8 5.714l24.749 24.752a19.375 19.375 0 0 1 5.725 13.803 19.378 19.378 0 0 1-5.726 13.805L63.772 88.411a19.38 19.38 0 0 1-13.799 5.717z"/><path style="-webkit-tap-highlight-color:rgba(0,0,0,0)" fill="#39f" d="M33.014 23.398c0-9.366 7.593-16.959 16.959-16.959 9.367 0 16.959 7.593 16.959 16.959 0 9.367-7.592 16.959-16.959 16.959-9.367.001-16.959-7.592-16.959-16.959"/><path style="-webkit-tap-highlight-color:rgba(0,0,0,0)" fill="#333" d="M93.816 61.314a20.675 20.675 0 0 0 3.43-11.455 20.685 20.685 0 0 0-6.112-14.738L64.707 8.691l-.01.01c-3.771-3.777-8.979-6.117-14.725-6.117S39.019 4.925 35.249 8.702l-.009-.01L8.813 35.118a20.7 20.7 0 0 0-6.112 14.741 20.69 20.69 0 0 0 6.11 14.737L32.64 88.425a33.708 33.708 0 0 0 3.017 2.997 20.683 20.683 0 0 0 14.315 5.705 20.696 20.696 0 0 0 14.734-6.104l25.71-25.709.195-.195.521-.52a21.032 21.032 0 0 0 2.635-3.207l.056-.074-.007-.004zm-4.281-11.455c0 2.592-.752 5.066-2.144 7.184a22.81 22.81 0 0 1-2.604 2.997l-.064.064c-4.227 4.021-9.003 5.16-13.056 5.16-2.23 0-4.243-.346-5.825-.745-9.263-2.34-19.332-10.311-23.94-21.936a20.688 20.688 0 0 0 8.07 1.629c10.747 0 19.616-8.187 20.702-18.65L85.683 40.57a13.048 13.048 0 0 1 3.852 9.289zM49.973 10.294c7.227 0 13.104 5.879 13.104 13.104 0 7.226-5.878 13.105-13.104 13.105-7.225 0-13.103-5.879-13.103-13.105 0-7.225 5.878-13.104 13.103-13.104zM14.262 59.146a13.042 13.042 0 0 1-3.851-9.286c0-3.508 1.367-6.806 3.85-9.286l10.154-10.155c-2.65 9.022-3.788 18.516-3.178 27.617a64.686 64.686 0 0 0 1.321 9.404l-8.296-8.294zm17.359-25.94c2.23 17.449 16.042 34.672 32.333 38.789 2.654.67 5.256 1 7.773 1l.109-.003-12.58 12.581a13.05 13.05 0 0 1-9.284 3.845c-2.441 0-4.773-.676-6.805-1.914l.004-.007c-.8-.53-1.562-1.129-2.303-1.763-.058-.057-.12-.104-.177-.161l-2.542-2.542c-5.227-6.001-8.514-14.93-9.221-25.51-.535-8.006.426-16.354 2.693-24.315"/></svg>