<svg xmlns="http://www.w3.org/2000/svg" viewBox="0 0 85 85" width="85" height="85"><path d="M22.624 66.615c0 1.454-.78 2.196-2.006 2.196-1.265 0-2.035-.808-2.035-2.244v-3.82h-.751v3.868c0 1.882 1.122 2.89 2.766 2.89 1.664 0 2.777-1.008 2.777-2.947v-3.812h-.751v3.87zm5.507-3.917L25.1 69.4h.77l.789-1.758h3.622l.78 1.758h.808l-3.033-6.702zm-1.178 4.259l1.521-3.384 1.51 3.384zm32.015-4.21h-2.491V69.4h.751v-2.347h1.616c1.417 0 2.614-.742 2.614-2.178v-.019c0-1.311-.988-2.11-2.49-2.11zm1.73 2.157c0 .874-.722 1.464-1.824 1.464h-1.646V63.44h1.683c1.074 0 1.788.495 1.788 1.445zm-45.436 1.17v-.02c0-1.834-1.36-3.422-3.385-3.422-2.024 0-3.403 1.606-3.403 3.441v.019c0 1.835 1.36 3.423 3.385 3.423.817 0 1.53-.267 2.09-.704l.884.789.514-.56-.874-.742c.494-.609.79-1.398.79-2.225zm-1.34 1.758L12.675 66.7l-.504.562 1.245 1.064c-.417.314-.95.494-1.54.494-1.52 0-2.624-1.235-2.624-2.747v-.02c0-1.51 1.084-2.727 2.606-2.727 1.52 0 2.623 1.236 2.623 2.747v.019c0 .666-.2 1.264-.56 1.74zm-9.75-2.12c-1.464-.314-1.805-.665-1.805-1.293V64.4c0-.6.55-1.074 1.416-1.074.684 0 1.302.219 1.92.723l.437-.58c-.675-.542-1.368-.818-2.338-.818-1.264 0-2.186.77-2.186 1.816v.018c0 1.094.703 1.588 2.233 1.921 1.398.294 1.73.647 1.73 1.264v.02c0 .655-.59 1.13-1.483 1.13-.922 0-1.587-.313-2.281-.94l-.466.55c.799.714 1.664 1.065 2.719 1.065 1.321 0 2.272-.741 2.272-1.882v-.02c0-1.016-.684-1.558-2.168-1.881zm75.371 3.004v-2.33h3.632v-.684h-3.632v-2.271h4.06v-.685h-4.81V69.4h4.858v-.684zM51.74 65.712c-1.464-.314-1.807-.665-1.807-1.293V64.4c0-.6.552-1.074 1.417-1.074.685 0 1.302.219 1.92.723l.438-.58c-.675-.542-1.37-.818-2.34-.818-1.264 0-2.186.77-2.186 1.816v.018c0 1.094.704 1.588 2.235 1.921 1.397.294 1.729.647 1.729 1.264v.02c0 .655-.589 1.13-1.482 1.13-.922 0-1.588-.313-2.282-.94l-.465.55c.797.714 1.663 1.065 2.718 1.065 1.322 0 2.272-.741 2.272-1.882v-.02c0-1.016-.685-1.558-2.167-1.881zm-9.045.675h3.632v-.685h-3.632v-2.271h4.06v-.685h-4.811V69.4H46.8v-.684h-4.106v-2.33zm22.592-3.689L62.253 69.4h.77l.789-1.758h3.622l.78 1.758h.808l-3.032-6.702zm-1.18 4.259l1.522-3.384 1.511 3.384zm9.597 1.863c-1.464 0-2.577-1.207-2.577-2.747v-.02c0-1.53 1.104-2.727 2.577-2.727.903 0 1.53.38 2.091.912l.514-.55c-.666-.628-1.389-1.056-2.596-1.056-1.958 0-3.365 1.56-3.365 3.441v.019c0 1.91 1.417 3.423 3.337 3.423 1.207 0 1.968-.466 2.662-1.17l-.495-.485c-.637.609-1.235.96-2.148.96zm-34.454-4.078v-.018c0-.524-.19-.99-.514-1.313-.418-.418-1.074-.665-1.892-.665h-2.861V69.4h.75v-2.586h1.902l1.93 2.586h.922l-2.044-2.718c1.046-.19 1.807-.837 1.807-1.94zm-4.516 1.398v-2.7h2.054c1.074 0 1.7.495 1.7 1.312v.019c0 .855-.712 1.369-1.71 1.369h-2.044zm-7.635-31.644a1.548 1.548 0 0 0 2.19 0l14.458-14.458a5.273 5.273 0 0 1 7.448-.001 1.548 1.548 0 1 0 2.191-2.19c-3.261-3.262-8.568-3.261-11.83 0L27.099 32.305a1.548 1.548 0 0 0 0 2.19zm7.01 4.819l14.457-14.458a1.548 1.548 0 1 0-2.19-2.19L31.916 37.123a5.273 5.273 0 0 1-7.448.001 5.273 5.273 0 0 1 0-7.45l11.63-11.63a1.548 1.548 0 1 0-2.19-2.19l-11.631 11.63c-3.262 3.262-3.262 8.57 0 11.83 3.261 3.262 8.568 3.261 11.83 0zm9.638 9.639l14.458-14.458a1.548 1.548 0 1 0-2.19-2.19L41.555 46.762a5.273 5.273 0 0 1-7.449 0 1.548 1.548 0 1 0-2.19 2.192c3.261 3.261 8.568 3.26 11.83-.001zm7.647 1.992l11.631-11.63c3.261-3.262 3.261-8.57 0-11.83-3.261-3.262-8.568-3.261-11.83 0L36.737 41.944a1.548 1.548 0 1 0 2.19 2.19l14.458-14.457a5.273 5.273 0 0 1 7.448-.001 5.273 5.273 0 0 1 0 7.45l-11.63 11.63a1.548 1.548 0 1 0 2.19 2.19z" fill="#222222"/></svg>